<svg width="134" height="83" viewBox="0 0 134 83" fill="none" xmlns="http://www.w3.org/2000/svg">
<g filter="url(#filter0_i_257_1303)">
<g clip-path="url(#clip0_257_1303)">
<rect x="4.8418" y="6.64288" width="41.2277" height="55.5679" rx="7" transform="rotate(-5.02607 4.8418 6.64288)" fill="#F5F7E2"/>
<rect x="-20.7881" y="31.3807" width="89.5853" height="12.1462" transform="rotate(-5.02607 -20.7881 31.3807)" fill="white" fill-opacity="0.5"/>
<path d="M20.0264 31.4558L19.5171 25.6644L19.5062 25.5408C19.4597 25.012 19.8506 24.5456 20.3794 24.4991L20.5778 24.4817C20.997 24.4448 21.3667 24.7548 21.4036 25.174C21.4567 25.7772 22.1634 26.089 22.6597 25.742C24.3967 24.5278 27.1069 22.8915 29.3562 22.3478C32.899 21.4915 36.7509 24.1488 38.187 24.0225C38.6738 23.9797 38.9946 23.8211 39.2001 23.6251C39.5713 23.2713 39.9141 22.7311 40.4265 22.7506C41.2985 22.7837 42.3091 23.1056 42.543 24.1841C42.9488 26.055 39.3076 31.2779 37.773 35.7707C36.7266 38.8344 37.3441 43.2822 37.9733 45.9532C38.1206 46.5783 37.6819 47.204 37.041 47.2455L27.6697 47.8525C27.0698 47.8914 26.5748 47.3973 26.635 46.7991C26.7901 45.2602 27.1282 42.6875 27.7421 39.649C28.2302 37.2328 29.8646 34.729 31.4932 32.7702C31.9681 32.1989 31.0211 30.2643 30.2849 30.1648C27.8438 29.8348 28.3225 29.7927 25.5707 28.6728C23.6621 27.8961 22.4774 29.9902 21.9718 31.5866C21.8437 31.9907 21.4993 32.2993 21.077 32.3365C20.5437 32.3834 20.0733 31.9891 20.0264 31.4558Z" fill="#341D1A"/>
<g filter="url(#filter1_i_257_1303)">
<path d="M16.5054 28.666L15.9961 22.8747L15.9852 22.751C15.9387 22.2223 16.3297 21.7559 16.8584 21.7094L17.0568 21.692C17.476 21.6551 17.8458 21.9651 17.8826 22.3843C17.9357 22.9875 18.6424 23.2992 19.1387 22.9523C20.8757 21.738 23.5859 20.1017 25.8352 19.5581C29.378 18.7018 33.2299 21.359 34.666 21.2327C35.1528 21.1899 35.4736 21.0313 35.6791 20.8354C36.0503 20.4816 36.3931 19.9414 36.9055 19.9608C37.7775 19.994 38.7881 20.3159 39.022 21.3944C39.4278 23.2653 35.7866 28.4881 34.252 32.981C33.2056 36.0447 33.8231 40.4925 34.4523 43.1634C34.5996 43.7885 34.1609 44.4143 33.52 44.4558L24.1487 45.0628C23.5488 45.1017 23.0538 44.6075 23.114 44.0094C23.2691 42.4705 23.6072 39.8978 24.2211 36.8592C24.7092 34.443 26.3436 31.9393 27.9722 29.9804C28.4471 29.4092 27.5001 27.4746 26.7639 27.3751C24.3228 27.045 24.8015 27.0029 22.0497 25.8831C20.1411 25.1064 18.9564 27.2005 18.4508 28.7968C18.3227 29.201 17.9783 29.5096 17.556 29.5467C17.0227 29.5936 16.5523 29.1993 16.5054 28.666Z" fill="#F7405E"/>
</g>
<path d="M15.498 22.9185L16.0073 28.7098C16.0784 29.5182 16.7914 30.1159 17.5998 30.0448C18.2474 29.9878 18.7461 29.5203 18.9274 28.9478C19.1702 28.1813 19.5637 27.3419 20.0857 26.7954C20.3425 26.5266 20.6125 26.3474 20.8922 26.2665C21.1636 26.188 21.4802 26.1911 21.8612 26.3462C22.543 26.6236 23.0242 26.8341 23.4033 27.0002L23.4324 27.013C23.7937 27.1713 24.077 27.2954 24.353 27.3954C24.9382 27.6073 25.477 27.7056 26.6969 27.8706C26.6964 27.8705 26.6962 27.8705 26.6962 27.8705C26.6962 27.8706 26.7204 27.8756 26.7695 27.9083C26.8219 27.9432 26.8867 27.9991 26.9593 28.0793C27.1052 28.2405 27.2523 28.4663 27.3705 28.7153C27.4892 28.9653 27.5661 29.2121 27.5913 29.4095C27.6156 29.6005 27.5827 29.6641 27.5841 29.6649C27.5843 29.665 27.5854 29.6635 27.5877 29.6608C25.9438 31.6381 24.2441 34.2201 23.731 36.7602C23.1136 39.8164 22.7731 42.4056 22.6165 43.9593C22.5241 44.8772 23.2854 45.6198 24.1811 45.5618L33.5523 44.9548C34.519 44.8921 35.1531 43.9579 34.939 43.0488C34.6295 41.735 34.3233 39.9849 34.223 38.1916C34.1224 36.3909 34.2319 34.5867 34.7252 33.1426C35.3649 31.2696 36.3785 29.2654 37.32 27.404C37.487 27.0737 37.6518 26.7479 37.8118 26.4282C38.3373 25.378 38.8133 24.3881 39.1319 23.5377C39.2915 23.1118 39.4165 22.708 39.4875 22.3397C39.5576 21.9762 39.5815 21.6149 39.5107 21.2884C39.36 20.5935 38.9487 20.1307 38.4478 19.8496C37.9634 19.5776 37.406 19.4795 36.9245 19.4612C36.4729 19.444 36.1346 19.6794 35.9046 19.8868C35.7873 19.9924 35.6795 20.1083 35.5878 20.2077C35.5792 20.2169 35.5708 20.2261 35.5626 20.235C35.4768 20.3281 35.4056 20.4053 35.3341 20.4735C35.2251 20.5774 35.0179 20.6999 34.6222 20.7347C34.5202 20.7436 34.363 20.7292 34.1344 20.6753C33.9106 20.6225 33.6481 20.5393 33.3448 20.4324C33.089 20.3422 32.8142 20.2388 32.5174 20.1272C32.4626 20.1065 32.407 20.0857 32.3507 20.0645C31.9919 19.9297 31.6061 19.7864 31.2022 19.6485C29.601 19.1016 27.6359 18.6085 25.7177 19.0721C23.3714 19.6392 20.5962 21.3234 18.8522 22.5425C18.6546 22.6806 18.3983 22.5406 18.3807 22.3405C18.3196 21.6462 17.7073 21.1328 17.013 21.1939L16.8146 21.2113C16.0108 21.282 15.4164 21.991 15.4871 22.7948L15.498 22.9185Z" stroke="#341D1A"/>
</g>
<rect x="4.8418" y="6.64288" width="41.2277" height="55.5679" rx="7" transform="rotate(-5.02607 4.8418 6.64288)" stroke="#341D1A"/>
</g>
<g filter="url(#filter2_i_257_1303)">
<g clip-path="url(#clip1_257_1303)">
<rect x="52.6211" y="1.74207" width="41.2277" height="55.5679" rx="7" transform="rotate(16.6337 52.6211 1.74207)" fill="#F5F7E2"/>
<rect x="19.6699" y="15.2732" width="89.5853" height="12.1462" transform="rotate(16.6337 19.6699 15.2732)" fill="white" fill-opacity="0.5"/>
<path d="M57.575 30.4074L59.2392 24.837L59.2747 24.7181C59.4266 24.2095 59.9621 23.9203 60.4707 24.0723L60.6615 24.1293C61.0648 24.2498 61.294 24.6743 61.1735 25.0775C61.0002 25.6577 61.5419 26.2083 62.1312 26.0691C64.1938 25.5817 67.3166 25.0612 69.6077 25.3862C73.2165 25.8979 75.8156 29.7893 77.1969 30.202C77.6651 30.3419 78.0218 30.3129 78.2852 30.2066C78.7607 30.0148 79.2787 29.6393 79.7477 29.8465C80.5459 30.1991 81.3664 30.8713 81.1857 31.96C80.8722 33.8485 75.5604 37.3587 72.4759 40.9679C70.3726 43.4291 69.3048 47.7907 68.9038 50.5053C68.8099 51.1406 68.1712 51.5603 67.5603 51.3623L58.6267 48.4676C58.0548 48.2823 57.7771 47.6403 58.0538 47.1066C58.7659 45.7336 60.0298 43.4674 61.7218 40.8699C63.0672 38.8045 65.5104 37.0808 67.747 35.8614C68.3992 35.5057 68.2331 33.3582 67.5856 32.994C65.4387 31.7862 65.8991 31.9238 63.755 29.8674C62.2678 28.441 60.3938 29.95 59.3347 31.247C59.0665 31.5754 58.6325 31.735 58.2263 31.6137C57.7133 31.4604 57.4217 30.9204 57.575 30.4074Z" fill="#341D1A"/>
<g filter="url(#filter3_i_257_1303)">
<path d="M55.3323 26.5151L56.9965 20.9447L57.032 20.8257C57.184 20.3171 57.7195 20.028 58.2281 20.18L58.4188 20.2369C58.8221 20.3574 59.0513 20.782 58.9308 21.1852C58.7575 21.7654 59.2992 22.316 59.8885 22.1767C61.9511 21.6893 65.0739 21.1689 67.365 21.4938C70.9738 22.0056 73.5729 25.897 74.9542 26.3097C75.4225 26.4495 75.7791 26.4205 76.0425 26.3143C76.518 26.1224 77.036 25.7469 77.505 25.9541C78.3032 26.3067 79.1237 26.979 78.943 28.0677C78.6296 29.9562 73.3177 33.4663 70.2332 37.0756C68.1299 39.5367 67.0622 43.8984 66.6611 46.613C66.5672 47.2483 65.9285 47.6679 65.3176 47.47L56.384 44.5752C55.8121 44.3899 55.5344 43.748 55.8111 43.2143C56.5232 41.8413 57.7871 39.5751 59.4791 36.9776C60.8245 34.9121 63.2677 33.1885 65.5043 31.969C66.1565 31.6134 65.9904 29.4659 65.343 29.1016C63.196 27.8939 63.6565 28.0315 61.5123 25.975C60.0251 24.5487 58.1511 26.0576 57.092 27.3547C56.8239 27.6831 56.3898 27.8427 55.9836 27.7214C55.4707 27.5681 55.1791 27.028 55.3323 26.5151Z" fill="#F7405E"/>
</g>
<path d="M56.5174 20.8016L54.8532 26.372C54.6209 27.1495 55.0629 27.9681 55.8405 28.2004C56.4634 28.3865 57.0995 28.136 57.4793 27.6709C57.9878 27.0482 58.6634 26.4132 59.3502 26.098C59.6881 25.9429 60.0052 25.8761 60.295 25.9041C60.5762 25.9314 60.8693 26.0511 61.1662 26.3359C61.6974 26.8453 62.067 27.2186 62.358 27.5129L62.3803 27.5355C62.6577 27.8159 62.8752 28.0359 63.0948 28.2307C63.5604 28.6436 64.0249 28.9339 65.0978 29.5374C65.0974 29.5372 65.0972 29.5371 65.0972 29.5371C65.0971 29.5372 65.1178 29.5508 65.1514 29.5993C65.1872 29.6511 65.2268 29.7269 65.2646 29.8283C65.3407 30.0319 65.3941 30.2961 65.4121 30.5711C65.4301 30.8473 65.4105 31.1051 65.361 31.2978C65.3131 31.4843 65.2591 31.5313 65.2601 31.5325C65.2602 31.5327 65.2618 31.5317 65.2649 31.53C63.0073 32.7609 60.4746 34.5333 59.0602 36.7047C57.3583 39.3172 56.0862 41.5979 55.3673 42.9841C54.9426 43.803 55.376 44.7742 56.2299 45.0509L65.1635 47.9456C66.085 48.2442 67.0192 47.61 67.1557 46.6861C67.353 45.3508 67.7143 43.6113 68.2831 41.9076C68.8542 40.1968 69.6219 38.5605 70.6133 37.4004C71.8992 35.8958 73.581 34.4072 75.143 33.0247C75.4202 32.7794 75.6935 32.5375 75.9603 32.2993C76.8362 31.5173 77.6441 30.773 78.2541 30.1002C78.5595 29.7632 78.8248 29.4341 79.0267 29.1181C79.226 28.806 79.3816 28.4791 79.4363 28.1495C79.5527 27.4481 79.3412 26.8662 78.9795 26.42C78.6296 25.9884 78.1479 25.6915 77.7071 25.4968C77.2937 25.3142 76.8925 25.408 76.6021 25.5158C76.4542 25.5708 76.3112 25.6386 76.1892 25.6972C76.1779 25.7026 76.1667 25.708 76.1557 25.7133C76.0417 25.7681 75.9469 25.8136 75.8554 25.8506C75.7158 25.9069 75.4779 25.9443 75.0974 25.8306C74.9992 25.8013 74.8585 25.7298 74.6659 25.5953C74.4774 25.4637 74.2641 25.2895 74.0217 25.0781C73.8172 24.8999 73.6 24.7024 73.3653 24.4891C73.322 24.4497 73.2781 24.4098 73.2336 24.3693C72.9498 24.1117 72.6442 23.8361 72.3198 23.5588C71.0335 22.4595 69.3891 21.2759 67.4352 20.9988C65.0452 20.6598 61.8443 21.2008 59.7736 21.6901C59.5389 21.7456 59.3524 21.5208 59.4099 21.3283C59.6094 20.6605 59.2298 19.9574 58.562 19.7579L58.3712 19.7009C57.598 19.4699 56.7839 19.9094 56.5529 20.6826L56.5174 20.8016Z" stroke="#341D1A"/>
</g>
<rect x="52.6211" y="1.74207" width="41.2277" height="55.5679" rx="7" transform="rotate(16.6337 52.6211 1.74207)" stroke="#341D1A"/>
</g>
<g filter="url(#filter4_i_257_1303)">
<g clip-path="url(#clip2_257_1303)">
<rect x="98.1543" y="16.0981" width="41.2277" height="55.5679" rx="7" transform="rotate(34.0367 98.1543 16.0981)" fill="#F5F7E2"/>
<rect x="62.6646" y="19.1545" width="89.5853" height="12.1462" transform="rotate(34.0367 62.6646 19.1545)" fill="white" fill-opacity="0.5"/>
<path d="M94.3081 44.9329L97.5621 40.1152L97.6316 40.0123C97.9287 39.5725 98.5262 39.4567 98.9661 39.7538L99.1311 39.8653C99.4798 40.1009 99.5716 40.5745 99.336 40.9233C98.9971 41.4251 99.3493 42.1125 99.9533 42.1559C102.067 42.3077 105.203 42.7451 107.292 43.7404C110.582 45.3081 111.899 49.7987 113.093 50.6056C113.498 50.8791 113.847 50.9581 114.13 50.9355C114.641 50.8946 115.248 50.6913 115.634 51.0293C116.29 51.6045 116.872 52.4913 116.374 53.4761C115.51 55.1845 109.391 56.9452 105.368 59.4667C102.625 61.1861 100.302 65.0288 99.1072 67.4991C98.8276 68.0773 98.0926 68.2867 97.5689 67.9151L89.91 62.4809C89.4197 62.133 89.3467 61.4374 89.7704 61.0109C90.8606 59.9137 92.7444 58.1292 95.1358 56.1567C97.0374 54.5883 99.8843 53.6742 102.383 53.1795C103.112 53.0353 103.596 50.9363 103.087 50.3951C101.399 48.6005 101.798 48.8695 100.367 46.2659C99.3742 44.4601 97.1347 45.3395 95.7361 46.2604C95.382 46.4935 94.9201 46.5161 94.5688 46.2788C94.1252 45.9791 94.0084 45.3765 94.3081 44.9329Z" fill="#341D1A"/>
<g filter="url(#filter5_i_257_1303)">
<path d="M93.332 40.548L96.5861 35.7303L96.6555 35.6275C96.9527 35.1876 97.5501 35.0718 97.99 35.369L98.155 35.4804C98.5037 35.716 98.5955 36.1896 98.3599 36.5384C98.021 37.0402 98.3733 37.7276 98.9772 37.771C101.091 37.9228 104.227 38.3602 106.316 39.3555C109.606 40.9232 110.922 45.4138 112.117 46.2207C112.522 46.4942 112.871 46.5732 113.154 46.5506C113.665 46.5098 114.272 46.3064 114.658 46.6444C115.314 47.2196 115.896 48.1064 115.398 49.0913C114.534 50.7996 108.415 52.5603 104.392 55.0818C101.649 56.8012 99.3257 60.6439 98.1311 63.1142C97.8516 63.6924 97.1166 63.9018 96.5928 63.5302L88.9339 58.096C88.4437 57.7481 88.3706 57.0525 88.7943 56.626C89.8845 55.5288 91.7683 53.7444 94.1598 51.7719C96.0614 50.2034 98.9082 49.2893 101.407 48.7946C102.136 48.6504 102.62 46.5514 102.111 46.0103C100.423 44.2157 100.822 44.4846 99.3906 41.881C98.3981 40.0752 96.1586 40.9546 94.7601 41.8755C94.406 42.1086 93.9441 42.1312 93.5927 41.8939C93.1491 41.5942 93.0324 40.9916 93.332 40.548Z" fill="#F7405E"/>
</g>
<path d="M96.1717 35.4505L92.9177 40.2681C92.4635 40.9406 92.6404 41.854 93.3129 42.3082C93.8516 42.6721 94.5335 42.6233 95.035 42.2931C95.7065 41.8509 96.5411 41.4471 97.2907 41.3518C97.6596 41.3048 97.9821 41.3359 98.2502 41.4493C98.5104 41.5594 98.7543 41.7613 98.9524 42.1219C99.307 42.7669 99.548 43.2336 99.7376 43.6014L99.7522 43.6297C99.933 43.9803 100.075 44.2552 100.226 44.5067C100.547 45.0401 100.903 45.456 101.747 46.3528C101.746 46.3524 101.746 46.3522 101.746 46.3522C101.746 46.3523 101.762 46.3715 101.779 46.4279C101.798 46.488 101.813 46.5722 101.819 46.6802C101.83 46.8973 101.802 47.1654 101.737 47.4332C101.672 47.702 101.576 47.9422 101.471 48.1113C101.37 48.2749 101.304 48.3036 101.305 48.3051C101.305 48.3053 101.307 48.3048 101.31 48.3041C98.7876 48.8035 95.8408 49.7372 93.8416 51.3861C91.4363 53.3701 89.5403 55.1659 88.4397 56.2736C87.7894 56.928 87.9126 57.9844 88.6446 58.5038L96.3035 63.938C97.0935 64.4985 98.1747 64.1727 98.5813 63.3319C99.1689 62.1168 100.034 60.5649 101.086 59.1093C102.143 57.6477 103.365 56.3159 104.658 55.5055C106.335 54.4543 108.385 53.5369 110.289 52.6849C110.627 52.5337 110.96 52.3846 111.286 52.2371C112.355 51.7529 113.349 51.2842 114.132 50.8247C114.525 50.5945 114.876 50.3598 115.163 50.1186C115.447 49.8804 115.693 49.6151 115.844 49.3169C116.165 48.6824 116.137 48.0639 115.925 47.5299C115.72 47.0135 115.349 46.586 114.987 46.2684C114.647 45.9705 114.236 45.94 113.927 45.9561C113.769 45.9643 113.613 45.9863 113.479 46.0057C113.466 46.0075 113.454 46.0092 113.442 46.011C113.317 46.0292 113.213 46.0443 113.114 46.0522C112.964 46.0642 112.726 46.0287 112.397 45.8064C112.312 45.7491 112.199 45.6388 112.056 45.4528C111.915 45.2708 111.764 45.0408 111.596 44.7666C111.454 44.5354 111.306 44.282 111.146 44.0082C111.116 43.9577 111.086 43.9065 111.056 43.8546C110.862 43.5238 110.653 43.1695 110.426 42.8078C109.527 41.3741 108.312 39.7529 106.531 38.9041C104.352 37.8658 101.135 37.4247 99.0131 37.2723C98.7726 37.255 98.6618 36.9847 98.7743 36.8183C99.1644 36.2407 99.0124 35.4562 98.4348 35.0661L98.2698 34.9546C97.6011 34.5029 96.6929 34.6789 96.2412 35.3476L96.1717 35.4505Z" stroke="#341D1A"/>
</g>
<rect x="98.1543" y="16.0981" width="41.2277" height="55.5679" rx="7" transform="rotate(34.0367 98.1543 16.0981)" stroke="#341D1A"/>
</g>
<defs>
<filter id="filter0_i_257_1303" x="4.8418" y="3.03094" width="45.9375" height="58.9662" filterUnits="userSpaceOnUse" color-interpolation-filters="sRGB">
<feFlood flood-opacity="0" result="BackgroundImageFix"/>
<feBlend mode="normal" in="SourceGraphic" in2="BackgroundImageFix" result="shape"/>
<feColorMatrix in="SourceAlpha" type="matrix" values="0 0 0 0 0 0 0 0 0 0 0 0 0 0 0 0 0 0 127 0" result="hardAlpha"/>
<feOffset dx="-2" dy="4"/>
<feComposite in2="hardAlpha" operator="arithmetic" k2="-1" k3="1"/>
<feColorMatrix type="matrix" values="0 0 0 0 1 0 0 0 0 0.862745 0 0 0 0 0.658824 0 0 0 1 0"/>
<feBlend mode="normal" in2="shape" result="effect1_innerShadow_257_1303"/>
</filter>
<filter id="filter1_i_257_1303" x="14.9814" y="18.3879" width="25.0718" height="27.677" filterUnits="userSpaceOnUse" color-interpolation-filters="sRGB">
<feFlood flood-opacity="0" result="BackgroundImageFix"/>
<feBlend mode="normal" in="SourceGraphic" in2="BackgroundImageFix" result="shape"/>
<feColorMatrix in="SourceAlpha" type="matrix" values="0 0 0 0 0 0 0 0 0 0 0 0 0 0 0 0 0 0 127 0" result="hardAlpha"/>
<feOffset dx="-1" dy="-2"/>
<feComposite in2="hardAlpha" operator="arithmetic" k2="-1" k3="1"/>
<feColorMatrix type="matrix" values="0 0 0 0 0.996078 0 0 0 0 0.854902 0 0 0 0 0.996078 0 0 0 1 0"/>
<feBlend mode="normal" in2="shape" result="effect1_innerShadow_257_1303"/>
</filter>
<filter id="filter2_i_257_1303" x="36.7148" y="1.74207" width="55.4087" height="65.0442" filterUnits="userSpaceOnUse" color-interpolation-filters="sRGB">
<feFlood flood-opacity="0" result="BackgroundImageFix"/>
<feBlend mode="normal" in="SourceGraphic" in2="BackgroundImageFix" result="shape"/>
<feColorMatrix in="SourceAlpha" type="matrix" values="0 0 0 0 0 0 0 0 0 0 0 0 0 0 0 0 0 0 127 0" result="hardAlpha"/>
<feOffset dx="-2" dy="4"/>
<feComposite in2="hardAlpha" operator="arithmetic" k2="-1" k3="1"/>
<feColorMatrix type="matrix" values="0 0 0 0 1 0 0 0 0 0.862745 0 0 0 0 0.658824 0 0 0 1 0"/>
<feBlend mode="normal" in2="shape" result="effect1_innerShadow_257_1303"/>
</filter>
<filter id="filter3_i_257_1303" x="54.291" y="19.1392" width="25.6772" height="29.3818" filterUnits="userSpaceOnUse" color-interpolation-filters="sRGB">
<feFlood flood-opacity="0" result="BackgroundImageFix"/>
<feBlend mode="normal" in="SourceGraphic" in2="BackgroundImageFix" result="shape"/>
<feColorMatrix in="SourceAlpha" type="matrix" values="0 0 0 0 0 0 0 0 0 0 0 0 0 0 0 0 0 0 127 0" result="hardAlpha"/>
<feOffset dx="-1" dy="-2"/>
<feComposite in2="hardAlpha" operator="arithmetic" k2="-1" k3="1"/>
<feColorMatrix type="matrix" values="0 0 0 0 0.996078 0 0 0 0 0.854902 0 0 0 0 0.996078 0 0 0 1 0"/>
<feBlend mode="normal" in2="shape" result="effect1_innerShadow_257_1303"/>
</filter>
<filter id="filter4_i_257_1303" x="67.0518" y="16.0981" width="65.2671" height="69.1241" filterUnits="userSpaceOnUse" color-interpolation-filters="sRGB">
<feFlood flood-opacity="0" result="BackgroundImageFix"/>
<feBlend mode="normal" in="SourceGraphic" in2="BackgroundImageFix" result="shape"/>
<feColorMatrix in="SourceAlpha" type="matrix" values="0 0 0 0 0 0 0 0 0 0 0 0 0 0 0 0 0 0 127 0" result="hardAlpha"/>
<feOffset dx="-2" dy="4"/>
<feComposite in2="hardAlpha" operator="arithmetic" k2="-1" k3="1"/>
<feColorMatrix type="matrix" values="0 0 0 0 1 0 0 0 0 0.862745 0 0 0 0 0.658824 0 0 0 1 0"/>
<feBlend mode="normal" in2="shape" result="effect1_innerShadow_257_1303"/>
</filter>
<filter id="filter5_i_257_1303" x="87.5161" y="34.2041" width="29.0684" height="30.5137" filterUnits="userSpaceOnUse" color-interpolation-filters="sRGB">
<feFlood flood-opacity="0" result="BackgroundImageFix"/>
<feBlend mode="normal" in="SourceGraphic" in2="BackgroundImageFix" result="shape"/>
<feColorMatrix in="SourceAlpha" type="matrix" values="0 0 0 0 0 0 0 0 0 0 0 0 0 0 0 0 0 0 127 0" result="hardAlpha"/>
<feOffset dx="-1" dy="-2"/>
<feComposite in2="hardAlpha" operator="arithmetic" k2="-1" k3="1"/>
<feColorMatrix type="matrix" values="0 0 0 0 0.996078 0 0 0 0 0.854902 0 0 0 0 0.996078 0 0 0 1 0"/>
<feBlend mode="normal" in2="shape" result="effect1_innerShadow_257_1303"/>
</filter>
<clipPath id="clip0_257_1303">
<rect x="4.8418" y="6.64288" width="41.2277" height="55.5679" rx="7" transform="rotate(-5.02607 4.8418 6.64288)" fill="white"/>
</clipPath>
<clipPath id="clip1_257_1303">
<rect x="52.6211" y="1.74207" width="41.2277" height="55.5679" rx="7" transform="rotate(16.6337 52.6211 1.74207)" fill="white"/>
</clipPath>
<clipPath id="clip2_257_1303">
<rect x="98.1543" y="16.0981" width="41.2277" height="55.5679" rx="7" transform="rotate(34.0367 98.1543 16.0981)" fill="white"/>
</clipPath>
</defs>
</svg>
    