<svg width="110" height="101" viewBox="0 0 110 101" fill="none" xmlns="http://www.w3.org/2000/svg">
<path d="M88.7676 37.3409C88.7676 57.335 72.5592 73.5435 52.565 73.5435C32.5708 73.5435 16.3623 57.335 16.3623 37.3409C16.3623 17.3467 32.5708 1.13818 52.565 1.13818C72.5592 1.13818 88.7676 17.3467 88.7676 37.3409Z" fill="#ECA09B" stroke="#341D1A"/>
<path d="M50.8997 67.1217C68.3648 67.1217 82.523 52.9634 82.523 35.4983C82.523 18.0332 68.3648 3.875 50.8997 3.875C33.4346 3.875 19.2764 18.0332 19.2764 35.4983C19.2764 52.9634 33.4346 67.1217 50.8997 67.1217Z" fill="#F5E9EF"/>
<path fill-rule="evenodd" clip-rule="evenodd" d="M54.9867 28.8307C57.0155 32.7346 55.8167 40.4194 47.5478 38.2676C41.984 36.8536 41.8303 29.7528 46.2875 26.1564C50.9292 23.6357 54.2797 26.4945 54.9867 28.8307ZM41.277 11.9548C44.5354 8.57351 49.4844 10.8175 48.9619 14.414C48.0704 17.6416 46.1646 20.1007 42.8447 19.3322C38.9409 17.6723 39.863 13.6455 41.277 11.9548ZM43.3058 5.83772C35.5288 7.34394 30.8564 15.705 37.158 21.9451L38.2031 22.6521L40.2012 23.6972L38.7257 25.2649L37.9265 26.2486C31.1331 34.6097 39.7401 48.2579 51.1751 46.9053C64.0548 45.3684 65.9914 30.3062 62.026 24.1276C59.6591 21.0844 57.3537 20.0392 53.3883 19.7319C57.4459 11.3093 51.8206 3.71671 43.3058 5.83772Z" fill="#D03144"/>
<path d="M109.392 60.8245C109.392 73.3998 99.1975 83.5941 86.6221 83.5941C74.0468 83.5941 63.8525 73.3998 63.8525 60.8245C63.8525 48.2492 74.0468 38.0549 86.6221 38.0549C99.1975 38.0549 109.392 48.2492 109.392 60.8245Z" fill="#2985E4" stroke="#341D1A"/>
<path d="M83.7901 75.8388C93.3165 75.8388 101.039 68.1161 101.039 58.5897C101.039 49.0633 93.3165 41.3406 83.7901 41.3406C74.2637 41.3406 66.541 49.0633 66.541 58.5897C66.541 68.1161 74.2637 75.8388 83.7901 75.8388Z" fill="#6EB0F5"/>
<path fill-rule="evenodd" clip-rule="evenodd" d="M83.1262 54.1525C85.2779 56.1813 80.7592 62.821 76.8554 60.6692C74.4577 58.0871 76.6094 50.2486 83.1262 54.1525ZM79.4682 50.3408C81.0666 47.3284 83.3413 47.2054 84.5709 47.6358L88.1674 49.972C89.5814 48.8961 89.8581 47.4821 89.1203 46.7751C81.7122 39.7973 70.2772 50.679 72.3982 60.5463C73.8736 67.2781 80.8515 65.6797 84.4787 61.0381C90.5343 53.1688 84.4172 49.0805 79.4682 50.3408Z" fill="#DAF3F5"/>
<path d="M24.3714 73.4782C24.3714 79.9249 19.1453 85.1509 12.6986 85.1509C6.25195 85.1509 1.02588 79.9249 1.02588 73.4782C1.02588 67.0315 6.25195 61.8054 12.6986 61.8054C19.1453 61.8054 24.3714 67.0315 24.3714 73.4782Z" fill="#F0B23E" stroke="#341D1A"/>
<path d="M11.8146 76.882C14.9901 76.882 17.5643 74.3077 17.5643 71.1323C17.5643 67.9568 14.9901 65.3826 11.8146 65.3826C8.63917 65.3826 6.06494 67.9568 6.06494 71.1323C6.06494 74.3077 8.63917 76.882 11.8146 76.882Z" fill="#EFCA7E"/>
<path d="M55.1778 92.0005C55.1778 96.4948 51.5344 100.138 47.0401 100.138C42.5457 100.138 38.9023 96.4948 38.9023 92.0005C38.9023 87.5061 42.5457 83.8627 47.0401 83.8627C51.5344 83.8627 55.1778 87.5061 55.1778 92.0005Z" fill="#F59AA0" stroke="#341D1A"/>
</svg>
