<svg width="56" height="56" viewBox="0 0 56 56" fill="none" xmlns="http://www.w3.org/2000/svg">
<g filter="url(#filter0_ii_0_1)">
<circle cx="27.6797" cy="27.7997" r="27.5" fill="#B76230"/>
</g>
<rect x="27.1309" y="0.299652" width="1.09601" height="55" fill="#7F411C"/>
<rect x="1.88672" y="15.7913" width="1.09601" height="56.2887" transform="rotate(-60.1557 1.88672 15.7913)" fill="#7F411C"/>
<rect x="4.46484" y="43.4974" width="1.09601" height="55" transform="rotate(-119.103 4.46484 43.4974)" fill="#7F411C"/>
<rect x="14.7998" y="53.4526" width="1.09601" height="56.5295" transform="rotate(-149.427 14.7998 53.4526)" fill="#7F411C"/>
<rect x="41.2568" y="51.9099" width="1.09601" height="56.1435" transform="rotate(149.835 41.2568 51.9099)" fill="#7F411C"/>
<rect x="0.179688" y="30.7386" width="1.09601" height="55" transform="rotate(-90 0.179688 30.7386)" fill="#7F411C"/>
<g filter="url(#filter1_i_0_1)">
<circle cx="27.475" cy="29.6562" r="18.3333" transform="rotate(15.1502 27.475 29.6562)" fill="#B6612F"/>
</g>
<circle cx="27.6818" cy="29.8299" r="22.913" transform="rotate(15.1502 27.6818 29.8299)" stroke="white" stroke-opacity="0.48" stroke-width="2" style="mix-blend-mode:screen"/>
<path d="M53.5291 36.0209C49.6329 50.411 34.8585 58.9242 20.5355 55.0461C6.21256 51.168 -2.24834 36.3636 1.64794 21.9735C5.54421 7.58346 20.3186 -0.929741 34.6416 2.94836C48.9645 6.82646 57.4254 21.6309 53.5291 36.0209Z" stroke="white" stroke-opacity="0.48" stroke-width="2" style="mix-blend-mode:screen"/>
<circle cx="27.6782" cy="30.4151" r="18.4275" transform="rotate(15.1502 27.6782 30.4151)" stroke="#DA9065" stroke-width="3" stroke-dasharray="12 1"/>
<defs>
<filter id="filter0_ii_0_1" x="0.179688" y="-3.70035" width="55" height="63" filterUnits="userSpaceOnUse" color-interpolation-filters="sRGB">
<feFlood flood-opacity="0" result="BackgroundImageFix"/>
<feBlend mode="normal" in="SourceGraphic" in2="BackgroundImageFix" result="shape"/>
<feColorMatrix in="SourceAlpha" type="matrix" values="0 0 0 0 0 0 0 0 0 0 0 0 0 0 0 0 0 0 127 0" result="hardAlpha"/>
<feOffset dy="4"/>
<feGaussianBlur stdDeviation="3"/>
<feComposite in2="hardAlpha" operator="arithmetic" k2="-1" k3="1"/>
<feColorMatrix type="matrix" values="0 0 0 0 1 0 0 0 0 1 0 0 0 0 1 0 0 0 0.6 0"/>
<feBlend mode="normal" in2="shape" result="effect1_innerShadow_0_1"/>
<feColorMatrix in="SourceAlpha" type="matrix" values="0 0 0 0 0 0 0 0 0 0 0 0 0 0 0 0 0 0 127 0" result="hardAlpha"/>
<feOffset dy="-10"/>
<feGaussianBlur stdDeviation="2"/>
<feComposite in2="hardAlpha" operator="arithmetic" k2="-1" k3="1"/>
<feColorMatrix type="matrix" values="0 0 0 0 0 0 0 0 0 0 0 0 0 0 0 0 0 0 0.25 0"/>
<feBlend mode="normal" in2="effect1_innerShadow_0_1" result="effect2_innerShadow_0_1"/>
</filter>
<filter id="filter1_i_0_1" x="9.13672" y="11.3183" width="36.6758" height="36.6758" filterUnits="userSpaceOnUse" color-interpolation-filters="sRGB">
<feFlood flood-opacity="0" result="BackgroundImageFix"/>
<feBlend mode="normal" in="SourceGraphic" in2="BackgroundImageFix" result="shape"/>
<feColorMatrix in="SourceAlpha" type="matrix" values="0 0 0 0 0 0 0 0 0 0 0 0 0 0 0 0 0 0 127 0" result="hardAlpha"/>
<feOffset dx="1" dy="5"/>
<feComposite in2="hardAlpha" operator="arithmetic" k2="-1" k3="1"/>
<feColorMatrix type="matrix" values="0 0 0 0 0 0 0 0 0 0 0 0 0 0 0 0 0 0 0.25 0"/>
<feBlend mode="normal" in2="shape" result="effect1_innerShadow_0_1"/>
</filter>
</defs>
</svg>
