<svg width="243" height="312" viewBox="0 0 243 312" fill="none" xmlns="http://www.w3.org/2000/svg">
<g filter="url(#filter0_d_265_11222)">
<path d="M1.1899 285.378L33.4861 62.1118C34.464 55.3519 39.3926 49.8336 45.9996 48.1014L220.539 2.34031C231.586 -0.556138 242.29 8.04768 241.837 19.4595L231.75 273.287C231.407 281.903 224.669 288.898 216.073 289.562L19.3242 304.761C8.46627 305.6 -0.369188 296.156 1.1899 285.378Z" fill="#F4F4F4"/>
<path d="M1.1899 285.378L33.4861 62.1118C34.464 55.3519 39.3926 49.8336 45.9996 48.1014L220.539 2.34031C231.586 -0.556138 242.29 8.04768 241.837 19.4595L231.75 273.287C231.407 281.903 224.669 288.898 216.073 289.562L19.3242 304.761C8.46627 305.6 -0.369188 296.156 1.1899 285.378Z" stroke="black" stroke-width="2" stroke-linejoin="round"/>
</g>
<defs>
<filter id="filter0_d_265_11222" x="0.0107422" y="0.773865" width="242.84" height="311.039" filterUnits="userSpaceOnUse" color-interpolation-filters="sRGB">
<feFlood flood-opacity="0" result="BackgroundImageFix"/>
<feColorMatrix in="SourceAlpha" type="matrix" values="0 0 0 0 0 0 0 0 0 0 0 0 0 0 0 0 0 0 127 0" result="hardAlpha"/>
<feOffset dy="6"/>
<feComposite in2="hardAlpha" operator="out"/>
<feColorMatrix type="matrix" values="0 0 0 0 0 0 0 0 0 0 0 0 0 0 0 0 0 0 0.1 0"/>
<feBlend mode="normal" in2="BackgroundImageFix" result="effect1_dropShadow_265_11222"/>
<feBlend mode="normal" in="SourceGraphic" in2="effect1_dropShadow_265_11222" result="shape"/>
</filter>
</defs>
</svg>
