<svg width="56" height="58" viewBox="0 0 56 58" fill="none" xmlns="http://www.w3.org/2000/svg">
<path fill-rule="evenodd" clip-rule="evenodd" d="M29.6985 46.9228C24.6291 48.3877 19.0156 47.7856 15.0048 45.879C11.1703 44.0584 6.61252 39.6519 6.92362 32.397C7.56757 17.4015 27.1516 5.80351 40.6707 11.9873C44.4858 13.7319 47.5859 17.0465 47.5102 24.4813C47.4588 29.6555 46.4673 35.0817 43.5774 38.3692C39.8762 42.5826 35.4154 45.2708 29.6985 46.9228ZM11.6628 19.5544C11.6719 19.5582 11.8525 19.6039 11.8699 19.6087C11.8839 19.6112 11.9456 19.6683 11.9484 19.6414C11.9504 19.6115 12.0039 19.6678 12.0311 19.6795C11.0759 20.3925 9.17774 23.7001 9.17529 23.7008C8.99972 23.8657 9.20967 23.9485 8.96564 23.7385C8.8719 24.8027 7.67868 26.2922 7.01344 29.5077C6.58143 31.599 6.43519 34.0449 7.10526 36.7407C7.65424 38.6497 8.41073 40.0813 9.21187 41.787C9.57163 42.5538 9.97246 43.2696 10.4158 43.921C10.8558 44.57 11.4791 45.2281 11.807 45.8019C13.1825 46.7089 14.1984 48.7439 18.8924 50.44C21.4996 51.3792 24.412 51.7835 27.4455 51.6048C34.0482 51.2068 39.7528 48.0777 44.1148 43.7418C45.0873 42.7759 46.0175 41.5809 46.7366 40.5382C47.1492 39.9429 47.4836 39.3897 47.8537 38.7577L49.5977 34.9533C49.7046 34.6517 49.7805 34.3167 49.9032 33.9323C51.7175 28.265 50.5196 22.6299 47.2423 17.2566C46.3514 15.7921 45.1771 14.6345 44.2217 13.8018C43.9618 13.5736 43.6427 13.3983 43.3736 13.2119C43.0372 12.9765 42.8572 12.8133 42.4718 12.5463C42.054 12.2594 40.9332 11.8658 40.6185 11.5034C39.4681 11.4673 33.8873 8.25657 25.0123 11.1734C21.1144 12.453 17.5282 14.3699 14.4734 17.1605C14.0023 17.5901 13.5726 17.9882 13.1485 18.4239C12.4843 19.105 12.6553 19.2186 11.6628 19.5544Z" fill="#FFA013"/>
<path fill-rule="evenodd" clip-rule="evenodd" d="M46.4492 17.8773C47.1445 19.6147 47.5377 21.7751 47.5102 24.4813C47.4588 29.6555 46.4673 35.0817 43.5774 38.3692C39.8762 42.5826 35.4154 45.2708 29.6985 46.9228C24.6291 48.3877 19.0156 47.7856 15.0048 45.879C13.7186 45.2683 12.3509 44.3666 11.113 43.1641C10.6137 42.6791 10.1355 42.1452 9.69229 41.5616C9.69224 41.5616 9.6922 41.5615 9.69215 41.5615C8.66217 40.2054 7.82088 38.5816 7.34204 36.6819C7.34131 36.679 7.34059 36.6761 7.33987 36.6733C7.01404 35.3771 6.85692 33.9525 6.92362 32.397C6.96486 31.4367 7.08379 30.4902 7.27382 29.5615C7.27383 29.5615 7.27383 29.5615 7.27384 29.5614C7.60829 27.927 8.16298 26.3475 8.90212 24.8434C9.02594 24.5915 9.15493 24.3416 9.28893 24.094C9.32002 24.0366 9.35139 23.9792 9.38303 23.922C9.40884 23.8753 9.43482 23.8287 9.46099 23.7822C9.57617 23.5773 9.69479 23.3741 9.81674 23.1724C9.81681 23.1723 9.81687 23.1722 9.81694 23.1721C10.3562 22.2804 10.9607 21.4204 11.6219 20.597C11.6229 20.5958 11.6239 20.5945 11.625 20.5933C11.6282 20.5892 11.6314 20.5852 11.6347 20.5811C11.6348 20.581 11.6349 20.5808 11.6351 20.5807C11.6354 20.5803 11.6357 20.5799 11.636 20.5795C11.643 20.5708 11.6501 20.562 11.6572 20.5533C11.6766 20.5292 11.696 20.5052 11.7156 20.4811C11.7767 20.406 11.8383 20.3311 11.9003 20.2565C11.9987 20.1383 12.0983 20.0209 12.199 19.9043C12.2615 19.8319 12.3245 19.7598 12.3879 19.688C12.3927 19.6825 12.3976 19.677 12.4025 19.6715C12.6003 19.4479 12.8023 19.2274 13.0084 19.01C13.127 18.885 13.2469 18.761 13.3681 18.638C13.3681 18.638 13.3682 18.6379 13.3683 18.6379C13.7912 18.2089 14.23 17.7928 14.6832 17.3905C14.6833 17.3904 14.6834 17.3904 14.6834 17.3903C17.6785 14.7319 21.3006 12.6767 25.1118 11.4767C25.1119 11.4767 25.1119 11.4767 25.1119 11.4766C30.1719 9.88348 35.5652 9.79764 40.2669 11.8087C40.3798 11.857 40.4922 11.9064 40.6043 11.9571C40.6264 11.9671 40.6486 11.9772 40.6707 11.9873C41.2193 12.2382 41.7532 12.5216 42.2649 12.845C42.2653 12.8452 42.2657 12.8455 42.2661 12.8457C42.5799 13.0441 42.8853 13.2574 43.1807 13.4876C43.1811 13.4879 43.1816 13.4883 43.182 13.4886C43.44 13.6897 43.6904 13.9037 43.9321 14.1316C43.9325 14.132 43.9329 14.1323 43.9332 14.1327C44.9336 15.0765 45.7838 16.2602 46.4042 17.7664C46.4044 17.7668 46.4045 17.7671 46.4047 17.7675C46.4197 17.8039 46.4345 17.8405 46.4492 17.8773ZM42.4718 12.5463C42.6759 12.6877 42.8224 12.8 42.9651 12.9094C43.0918 13.0065 43.2154 13.1012 43.3736 13.2119C43.4603 13.272 43.5522 13.3309 43.6456 13.3907C43.8421 13.5167 44.0455 13.6471 44.2217 13.8018C45.1771 14.6345 46.3514 15.7921 47.2423 17.2566C47.2774 17.3142 47.3123 17.3718 47.3469 17.4295C50.5449 22.7507 51.698 28.3257 49.9032 33.9323C49.848 34.1052 49.8023 34.2681 49.7589 34.4225C49.7059 34.6113 49.6565 34.7874 49.5977 34.9533L47.8537 38.7577C47.4836 39.3897 47.1492 39.9429 46.7366 40.5382C46.0175 41.5809 45.0873 42.7759 44.1148 43.7418C39.7528 48.0777 34.0482 51.2068 27.4455 51.6048C24.412 51.7835 21.4996 51.3792 18.8924 50.44C15.4959 49.2127 14.0252 47.808 12.9505 46.7816C12.54 46.3895 12.1872 46.0526 11.807 45.8019C11.6219 45.4779 11.3426 45.1272 11.0554 44.7663C10.8338 44.488 10.6074 44.2036 10.4158 43.921C10.3881 43.8804 10.3607 43.8395 10.3334 43.7984C9.92265 43.1802 9.54921 42.506 9.21187 41.787C9.07933 41.5049 8.94802 41.2302 8.81866 40.9596C8.16611 39.5946 7.56342 38.3339 7.10526 36.7407C6.72254 35.201 6.60612 33.7428 6.65715 32.3856C6.65715 32.3856 6.65715 32.3856 6.65715 32.3856C6.69547 31.3666 6.82818 30.4045 7.01344 29.5077C7.40347 27.6225 7.97498 26.3306 8.39999 25.3698C8.49619 25.1523 8.58489 24.9518 8.66227 24.7653C8.82614 24.3702 8.9393 24.0376 8.96564 23.7385C9.07113 23.8293 9.09178 23.8653 9.09542 23.8637C9.09925 23.862 9.0842 23.8184 9.12951 23.753C9.14069 23.7368 9.15555 23.7193 9.17529 23.7008C9.17543 23.7007 9.18194 23.6896 9.19426 23.6685C9.24238 23.5861 9.37919 23.3518 9.57177 23.034C9.57911 23.0219 9.58654 23.0097 9.59404 22.9973C9.59897 22.9892 9.60394 22.981 9.60893 22.9728C10.0305 22.2797 10.6917 21.2333 11.2822 20.4791C11.4572 20.2555 11.626 20.0576 11.7805 19.9022C11.7844 19.8983 11.7883 19.8944 11.7921 19.8905C11.8035 19.8792 11.8147 19.8682 11.8259 19.8573C11.898 19.7875 11.9667 19.7276 12.0311 19.6795C12.0218 19.6755 12.0093 19.6661 11.9968 19.6569C11.9912 19.6527 11.9855 19.6485 11.9802 19.6448C11.9795 19.6443 11.9788 19.6438 11.9782 19.6434C11.9621 19.6325 11.9494 19.6271 11.9484 19.6414C11.9471 19.6535 11.9341 19.6487 11.9187 19.6395C11.918 19.639 11.9172 19.6385 11.9164 19.638C11.9096 19.6338 11.9025 19.6289 11.8958 19.6242C11.8845 19.6164 11.8745 19.6095 11.8699 19.6087C11.8644 19.6072 11.8427 19.6016 11.8153 19.5946C11.7557 19.5793 11.6691 19.557 11.6628 19.5544C11.7425 19.5274 11.8146 19.5019 11.8803 19.4774C11.8849 19.4757 11.8895 19.474 11.894 19.4723C11.899 19.4704 11.904 19.4685 11.909 19.4666C12.0102 19.4283 12.0955 19.3923 12.1691 19.3571C12.453 19.2215 12.5621 19.0976 12.733 18.8921C12.7394 18.8843 12.746 18.8764 12.7527 18.8683C12.8498 18.7514 12.9685 18.6085 13.1485 18.4239C13.5726 17.9882 14.0023 17.5901 14.4734 17.1605C17.5282 14.3699 21.1144 12.453 25.0123 11.1734C32.1624 8.82346 37.1744 10.4508 39.4541 11.1909C40.004 11.3695 40.3949 11.4964 40.6185 11.5034C40.6668 11.559 40.7341 11.6154 40.8149 11.672C40.8149 11.672 40.8149 11.672 40.8149 11.672C41.054 11.8394 41.4117 12.0089 41.7464 12.1676C42.0357 12.3047 42.3079 12.4337 42.4718 12.5463ZM14.2346 46.6147C14.3925 46.7577 14.5595 46.9036 14.7411 47.0532C15.6663 47.8153 16.9939 48.6907 19.2323 49.4995C21.7024 50.3892 24.478 50.7778 27.3862 50.6065C33.6977 50.2258 39.1833 47.2339 43.4099 43.0326L43.4101 43.0323C44.3242 42.1245 45.2153 40.9828 45.9134 39.9705L45.9147 39.9687C46.2964 39.4179 46.6099 38.9019 46.9656 38.2953L48.6687 34.5801C48.7046 34.4743 48.7391 34.3551 48.7819 34.2031C48.7866 34.1863 48.7914 34.1692 48.7963 34.1518C48.8392 33.9989 48.8897 33.8189 48.9506 33.6281L48.9508 33.6274C50.2229 29.6538 49.9333 25.6739 48.3861 21.7501C48.4774 22.6048 48.52 23.5173 48.5101 24.4915L47.5158 24.4814L48.5101 24.4913C48.5101 24.4913 48.5101 24.4914 48.5101 24.4915C48.4582 29.715 47.4682 35.4575 44.3287 39.0292C40.4875 43.402 35.8548 46.1847 29.9762 47.8835C24.6727 49.416 18.8078 48.7939 14.5759 46.7824M14.2346 46.6147C14.3488 46.6727 14.4624 46.7285 14.5755 46.7822L14.2346 46.6147Z" fill="#530D11"/>
<path d="M44.111 38.1804C37.7799 48.2241 20.3224 52.5827 11.4703 44.4049C4.2597 37.7435 5.38399 26.0519 12.3541 19.0066C23.2859 7.95701 36.7622 8.8049 44.0837 13.4201C51.0387 17.8042 50.4421 28.1367 44.111 38.1804Z" fill="#FFA013"/>
<path fill-rule="evenodd" clip-rule="evenodd" d="M28.5293 47.1473C34.59 45.867 40.2746 42.3911 43.265 37.6472C46.3647 32.7299 48.0124 27.8135 48.0798 23.6617C48.1467 19.5366 46.6653 16.2295 43.5505 14.266C36.6117 9.89209 23.6552 9.00553 13.065 19.7099C6.38571 26.4613 5.45759 37.4887 12.1489 43.6704C16.26 47.4684 22.4659 48.4282 28.5293 47.1473ZM11.4703 44.4049C20.3224 52.5827 37.7799 48.2241 44.111 38.1804C50.4421 28.1367 51.0387 17.8042 44.0837 13.4201C36.7622 8.8049 23.2859 7.95701 12.3541 19.0066C5.38399 26.0519 4.2597 37.7435 11.4703 44.4049Z" fill="#530D11"/>
<path fill-rule="evenodd" clip-rule="evenodd" d="M38.1918 11.068C35.5304 10.295 32.7074 10.1203 29.889 10.4483L11.5282 43.5508C12.6533 44.5626 13.8628 45.3368 15.0079 45.8805C16.0365 46.3695 17.1705 46.7726 18.3737 47.0771L38.1918 11.068ZM7.84842 38.2655C12.6559 29.6521 18.5832 19.0203 22.142 12.6037C19.4957 13.7786 17.0071 15.3612 14.8387 17.2577L6.99069 31.4731C6.96141 31.78 6.94001 32.0885 6.9267 32.3985C6.83151 34.6183 7.19214 36.5715 7.84842 38.2655Z" fill="#FFBD5C"/>
<path fill-rule="evenodd" clip-rule="evenodd" d="M32.5595 21.1563C31.8261 20.7016 30.8629 20.9277 30.4083 21.6611L27.2433 26.7672L22.3468 23.2867C21.6434 22.7867 20.6679 22.9516 20.168 23.655C19.668 24.3584 19.8329 25.3338 20.5363 25.8338L25.5936 29.4286L22.3244 34.7027C21.8698 35.4361 22.0958 36.3993 22.8293 36.8539C23.5627 37.3086 24.5259 37.0826 24.9805 36.3491L28.1458 31.2427L33.0426 34.7233C33.7459 35.2233 34.7214 35.0584 35.2214 34.355C35.7213 33.6517 35.5564 32.6762 34.8531 32.1762L29.7955 28.5813L33.0644 23.3076C33.519 22.5741 33.293 21.6109 32.5595 21.1563Z" fill="#341D1A"/>
</svg>
